<?xml version="1.0" encoding="UTF-8"?>
<svg version="1.1" xmlns="http://www.w3.org/2000/svg" width="262" height="244">
<path d="M0 0 C1.25198181 -0.00708481 2.50396362 -0.01416962 3.79388428 -0.02146912 C5.17875708 -0.01917536 6.56362953 -0.01666567 7.94850159 -0.01396179 C9.40894329 -0.01830964 10.8693827 -0.02349303 12.32981873 -0.02944946 C16.29469286 -0.0428428 20.25947169 -0.04341778 24.22436404 -0.04088616 C27.5345585 -0.03981669 30.84473365 -0.04469919 34.15492398 -0.04949158 C41.96422364 -0.06058789 49.7734752 -0.06102346 57.58277893 -0.05497742 C65.63873506 -0.04893631 73.69451659 -0.06125176 81.75044292 -0.08254749 C88.66775324 -0.10016084 95.58500798 -0.10616528 102.5023399 -0.10290974 C106.63341809 -0.10109634 110.76437173 -0.10373872 114.89542961 -0.11762428 C118.78032237 -0.13019376 122.66494285 -0.12826703 126.54983139 -0.11521339 C127.97484873 -0.11284614 129.39988517 -0.11558768 130.8248806 -0.12383652 C132.77157504 -0.13429195 134.71834696 -0.12440736 136.66503906 -0.11352539 C138.29849856 -0.113777 138.29849856 -0.113777 139.96495724 -0.1140337 C144.33963527 0.44526119 146.96345367 2.1030386 149.70851135 5.51069641 C151.51757182 9.70009961 151.66310758 12.91903425 150.2280426 17.29975891 C146.34228567 25.96455024 140.12266851 33.48133858 134.50782776 41.07563782 C132.27817958 44.09825993 130.0801455 47.14257604 127.89601135 50.19819641 C127.50179993 50.74919006 127.1075885 51.30018372 126.70143127 51.86787415 C122.66920456 57.53236561 118.7624084 63.28210568 114.84864807 69.02876282 C111.28973715 74.24704324 107.67944989 79.4243057 104.02101135 84.57319641 C99.30859454 91.21554304 94.67736171 97.91081307 90.08351135 104.63569641 C89.47330139 105.52684143 88.86309143 106.41798645 88.23439026 107.33613586 C85.11220217 111.91922267 82.03609893 116.53079353 79.0171051 121.18257141 C78.44532532 122.06267883 77.87354553 122.94278625 77.28443909 123.8495636 C75.33077591 127.24227989 74.739388 129.34511257 74.89601135 133.26069641 C75.99679416 136.15312269 75.99679416 136.15312269 77.89601135 138.26069641 C81.11843365 139.33483718 83.47186903 139.39807124 86.86109924 139.41841125 C88.08990311 139.4286734 89.31870697 139.43893555 90.58474731 139.44950867 C91.24149508 139.45294659 91.89824284 139.45638451 92.57489204 139.45992661 C94.64047804 139.47175885 96.705859 139.49122674 98.7713623 139.51304626 C104.64413994 139.57448615 110.51689958 139.62848965 116.38990784 139.6620636 C119.98566231 139.68316901 123.58104688 139.71860407 127.17658806 139.7628212 C129.19586133 139.783641 131.21527522 139.78900351 133.23464966 139.79399109 C144.46303677 139.94269947 152.29408958 140.90471897 160.49209595 148.96110535 C161.22480209 149.71739227 161.95750824 150.4736792 162.7124176 151.25288391 C163.49495407 152.03583832 164.27749054 152.81879272 165.08374023 153.62547302 C166.72300358 155.27307333 168.35377569 156.9291616 169.97633362 158.59321594 C172.46329401 161.14059526 174.97864622 163.65708127 177.49952698 166.17085266 C179.09307384 167.77979839 180.68493202 169.39041878 182.2749176 171.00288391 C183.02584183 171.75512238 183.77676605 172.50736084 184.55044556 173.28239441 C185.23884018 173.99308075 185.9272348 174.70376709 186.63648987 175.43598938 C187.54722008 176.36506607 187.54722008 176.36506607 188.47634888 177.31291199 C190.16646117 179.631755 190.61051833 181.42328225 190.89601135 184.26069641 C188.93589452 186.22081325 185.12880494 185.41281432 182.45114136 185.41459656 C181.66231117 185.41897881 180.87348098 185.42336107 180.06074685 185.42787611 C177.39686461 185.44131375 174.73301548 185.4474541 172.06910706 185.4535675 C170.16738737 185.46146467 168.2656692 185.46973337 166.36395264 185.47834778 C160.09991395 185.50461608 153.83586842 185.5198818 147.5717926 185.53413391 C145.41834699 185.53949192 143.26490143 185.54486942 141.11145592 185.55026627 C132.15476849 185.57190348 123.19808289 185.5906407 114.24137592 185.60188866 C101.39165774 185.61812948 88.54224192 185.65130101 75.69263774 185.7082895 C66.66584684 185.74696233 57.63913688 185.7665183 48.61226529 185.77180922 C43.21731815 185.77546678 37.82269313 185.78753078 32.42783546 185.81991196 C27.35115569 185.84994509 22.27499371 185.85632132 17.19824409 185.8445282 C15.33501508 185.84430705 13.47176238 185.85264581 11.60861588 185.87018204 C9.06371875 185.89283055 6.52070594 185.8845998 3.97579956 185.86869812 C3.23911476 185.88258021 2.50242996 185.8964623 1.74342138 185.91076505 C-3.93770572 185.82335447 -6.27968929 184.17515433 -10.10398865 180.26069641 C-11.57560429 175.7962058 -10.42321272 171.91164873 -8.40867615 167.80366516 C-7.61992247 166.6701671 -6.80855417 165.55217614 -5.97898865 164.44819641 C-5.53812927 163.82493469 -5.0972699 163.20167297 -4.64305115 162.55952454 C-3.67219208 161.18991978 -2.69226456 159.82670973 -1.70457458 158.4691925 C0.60276842 155.28550964 2.84744656 152.05901149 5.09815979 148.8351593 C6.30472753 147.10739493 7.51374607 145.38133967 8.72511292 143.65693665 C13.39729248 137.00470914 17.93924209 130.27821999 22.41749573 123.49458313 C25.60509733 118.67844134 28.81582986 113.8776476 32.02101135 109.07319641 C33.33618992 107.10058977 34.65129553 105.12793448 35.96632385 103.15522766 C36.61053284 102.18923645 37.25474182 101.22324524 37.91847229 100.22798157 C39.27188012 98.19720147 40.6240338 96.16558514 41.97511292 94.133255 C45.73752398 88.47720949 49.53025074 82.84652304 53.39601135 77.26069641 C54.33122176 75.89893323 55.2661146 74.5369519 56.20069885 73.17475891 C57.89973372 70.70068319 59.61326647 68.23800374 61.34132385 65.78413391 C62.06062073 64.74514954 62.7799176 63.70616516 63.52101135 62.63569641 C64.46847229 61.28604797 64.46847229 61.28604797 65.43507385 59.90913391 C67.06491177 56.95450796 67.60720598 54.60990715 67.89601135 51.26069641 C67.27920722 48.940848 67.27920722 48.940848 65.89601135 47.26069641 C62.50187364 46.12931717 59.79399507 46.08539336 56.21632385 46.01460266 C54.88168195 45.98166118 53.5470467 45.94844958 52.2124176 45.91499329 C50.116924 45.8676472 48.02145676 45.82320477 45.92579651 45.78388977 C43.8973576 45.74398997 41.86945999 45.69249135 39.84132385 45.63960266 C38.02398743 45.60201843 38.02398743 45.60201843 36.16993713 45.56367493 C24.27577822 44.46295522 15.60189946 32.08792792 7.70851135 24.07319641 C1.00556524 17.21746565 1.00556524 17.21746565 -6.15867615 10.85835266 C-9.10398865 8.26069641 -9.10398865 8.26069641 -10.04148865 4.88569641 C-10.07242615 3.58632141 -10.07242615 3.58632141 -10.10398865 2.26069641 C-6.6689474 0.17291709 -3.98538272 0.00751562 0 0 Z " fill="#EE2026" transform="translate(38.10398864746094,33.73930358886719)"/>
<path d="M0 0 C1.125 1.8125 1.125 1.8125 1 4 C-2.17089163 10.06605356 -7.33491471 14.89324684 -12.51928711 19.2878418 C-19.38697225 25.11882511 -25.68068163 31.53024885 -32.03637695 37.90600586 C-34.05764268 39.9326298 -36.08419574 41.95385547 -38.11132812 43.97460938 C-46.63929765 52.49488239 -46.63929765 52.49488239 -54.68530273 61.46704102 C-56.51122553 63.59609751 -58.48785222 65.54791633 -60.5 67.5 C-63.89268399 70.85256779 -67.09100684 74.29475682 -70.1953125 77.9140625 C-72.21651276 80.25025501 -74.29378839 82.52964851 -76.375 84.8125 C-80.24838676 89.10392513 -83.91779594 93.52727321 -87.5546875 98.01953125 C-90.79599659 101.97020031 -94.12471696 105.84186728 -97.46777344 109.70654297 C-99.98493844 112.62281004 -102.46784289 115.55689442 -104.8828125 118.55859375 C-105.335354 119.11748291 -105.78789551 119.67637207 -106.25415039 120.25219727 C-107.49001137 121.78508921 -108.71602594 123.32590454 -109.94140625 124.8671875 C-110.62074219 125.57101563 -111.30007812 126.27484375 -112 127 C-112.99 127 -113.98 127 -115 127 C-114.60830472 121.59037064 -111.45950947 118.1103227 -108.3125 113.9375 C-107.11830276 112.32141166 -105.92564772 110.70418281 -104.734375 109.0859375 C-104.11626953 108.24901367 -103.49816406 107.41208984 -102.86132812 106.54980469 C-99.85833076 102.43604491 -96.96417316 98.24802318 -94.0625 94.0625 C-88.86615529 86.59451733 -83.53259696 79.24230459 -78.11181641 71.93603516 C-74.3192942 66.81586423 -70.59854128 61.65242569 -66.9375 56.4375 C-28.76217936 2.08220596 -28.76217936 2.08220596 -16.1875 -2.6875 C-9.98551861 -3.57349734 -5.3041427 -3.62234136 0 0 Z " fill="#FB2D35" transform="translate(236,37)"/>
<path d="M0 0 C1.125 1.8125 1.125 1.8125 1 4 C-3.07954321 11.80434354 -10.3905647 17.55294418 -16.984375 23.19921875 C-19.84962039 25.75906008 -22.49398058 28.51742999 -25.140625 31.30078125 C-27.0351468 33.03211945 -28.60979038 34.07957654 -31 35 C-33.75 34.625 -33.75 34.625 -36 34 C-36 33.01 -36 32.02 -36 31 C-36.99 31 -37.98 31 -39 31 C-40.875 29.5625 -40.875 29.5625 -42 27 C-41.55025754 18.13632568 -33.85602918 11.87243263 -28 6 C-27.11183594 5.0925 -26.22367188 4.185 -25.30859375 3.25 C-18.29793009 -3.58272803 -8.42209837 -5.75167693 0 0 Z " fill="#FD3334" transform="translate(236,37)"/>
<path d="M0 0 C1.25198181 -0.00708481 2.50396362 -0.01416962 3.79388428 -0.02146912 C5.17875708 -0.01917536 6.56362953 -0.01666567 7.94850159 -0.01396179 C9.40894329 -0.01830964 10.8693827 -0.02349303 12.32981873 -0.02944946 C16.29469286 -0.0428428 20.25947169 -0.04341778 24.22436404 -0.04088616 C27.5345585 -0.03981669 30.84473365 -0.04469919 34.15492398 -0.04949158 C41.96422364 -0.06058789 49.7734752 -0.06102346 57.58277893 -0.05497742 C65.63873506 -0.04893631 73.69451659 -0.06125176 81.75044292 -0.08254749 C88.66775324 -0.10016084 95.58500798 -0.10616528 102.5023399 -0.10290974 C106.63341809 -0.10109634 110.76437173 -0.10373872 114.89542961 -0.11762428 C118.78032237 -0.13019376 122.66494285 -0.12826703 126.54983139 -0.11521339 C127.97484873 -0.11284614 129.39988517 -0.11558768 130.8248806 -0.12383652 C132.77157504 -0.13429195 134.71834696 -0.12440736 136.66503906 -0.11352539 C138.29849856 -0.113777 138.29849856 -0.113777 139.96495724 -0.1140337 C144.33963527 0.44526119 146.96345367 2.1030386 149.70851135 5.51069641 C151.53688586 9.74482685 151.67432585 12.99987811 150.1577301 17.40522766 C146.34123394 25.77376289 140.43772663 32.98173588 134.89601135 40.26069641 C133.6505473 37.76976831 134.11925355 36.84988908 134.89601135 34.26069641 C135.88601135 34.26069641 136.87601135 34.26069641 137.89601135 34.26069641 C137.89601135 32.28069641 137.89601135 30.30069641 137.89601135 28.26069641 C138.88601135 28.26069641 139.87601135 28.26069641 140.89601135 28.26069641 C141.20538635 27.00257141 141.51476135 25.74444641 141.83351135 24.44819641 C142.43579183 21.99892247 143.09689776 19.65803719 143.89601135 17.26069641 C144.06101135 16.41507141 144.22601135 15.56944641 144.39601135 14.69819641 C144.89601135 12.26069641 144.89601135 12.26069641 145.89601135 10.26069641 C144.78799934 7.12772385 144.78799934 7.12772385 142.89601135 4.26069641 C139.77066643 3.06663749 136.67824991 3.13266718 133.36148071 3.12698364 C131.67282646 3.12058617 131.67282646 3.12058617 129.95005798 3.11405945 C128.71929535 3.11451263 127.48853271 3.11496582 126.22047424 3.11543274 C124.92094315 3.11207413 123.62141205 3.10871552 122.28250122 3.10525513 C118.72052778 3.09642619 115.15857837 3.0940775 111.59659505 3.09343934 C109.37066285 3.0927283 107.14473676 3.09059297 104.91880608 3.08794212 C97.15184517 3.07869292 89.38490141 3.07460677 81.61793518 3.07539368 C74.37998968 3.07599462 67.14211868 3.06543855 59.90419203 3.04965001 C53.68752061 3.03657281 47.47087354 3.03120984 41.25418848 3.03184909 C37.54231709 3.03210399 33.83051193 3.02925705 30.11865425 3.01867104 C25.97936535 3.00718799 21.8402434 3.01173797 17.70094299 3.01777649 C15.85783539 3.00934723 15.85783539 3.00934723 13.97749329 3.00074768 C12.84890396 3.00494217 11.72031464 3.00913666 10.55752563 3.01345825 C9.5791678 3.01291348 8.60080996 3.01236872 7.59280491 3.01180744 C4.65144234 3.28326786 2.52217424 3.916141 -0.10398865 5.26069641 C-1.40148385 7.73211584 -2.10398865 9.46862214 -2.10398865 12.26069641 C-0.45398865 12.26069641 1.19601135 12.26069641 2.89601135 12.26069641 C3.22601135 13.58069641 3.55601135 14.90069641 3.89601135 16.26069641 C4.88601135 16.26069641 5.87601135 16.26069641 6.89601135 16.26069641 C7.01976135 17.18882141 7.01976135 17.18882141 7.14601135 18.13569641 C7.68411868 20.44416446 7.68411868 20.44416446 9.89601135 21.26069641 C10.55601135 21.59069641 11.21601135 21.92069641 11.89601135 22.26069641 C12.01976135 22.92069641 12.14351135 23.58069641 12.27101135 24.26069641 C12.47726135 24.92069641 12.68351135 25.58069641 12.89601135 26.26069641 C13.88601135 26.59069641 14.87601135 26.92069641 15.89601135 27.26069641 C16.88601135 27.59069641 17.87601135 27.92069641 18.89601135 28.26069641 C19.58351135 30.32319641 19.58351135 30.32319641 19.89601135 32.26069641 C21.38101135 32.75569641 21.38101135 32.75569641 22.89601135 33.26069641 C22.89601135 34.25069641 22.89601135 35.24069641 22.89601135 36.26069641 C25.94864799 37.24190105 27.84337471 37.24190105 30.89601135 36.26069641 C30.91663635 36.85882141 30.93726135 37.45694641 30.95851135 38.07319641 C32.17776005 40.91811004 33.77253149 41.5067957 36.56715393 42.63398743 C41.49382415 43.95978284 46.63734327 43.76216803 51.70851135 43.82319641 C53.96516978 43.85752305 56.22172312 43.90006454 58.4780426 43.95210266 C59.47037903 43.96442932 60.46271545 43.97675598 61.48512268 43.98945618 C63.89601135 44.26069641 63.89601135 44.26069641 65.89601135 46.26069641 C61.28750786 46.16687105 56.67951178 46.06071394 52.07154846 45.9433136 C50.50522054 45.90512232 48.93880787 45.87025247 47.37232971 45.83882141 C45.11559336 45.7929557 42.85943553 45.73499872 40.6030426 45.67475891 C39.55900017 45.6574321 39.55900017 45.6574321 38.49386597 45.63975525 C25.041669 45.2349573 16.54010128 33.04055252 7.70851135 24.07319641 C1.00556524 17.21746565 1.00556524 17.21746565 -6.15867615 10.85835266 C-9.10398865 8.26069641 -9.10398865 8.26069641 -10.04148865 4.88569641 C-10.07242615 3.58632141 -10.07242615 3.58632141 -10.10398865 2.26069641 C-6.6689474 0.17291709 -3.98538272 0.00751562 0 0 Z " fill="#EB7F7B" transform="translate(38.10398864746094,33.73930358886719)"/>
<path d="M0 0 C0.99 0 1.98 0 3 0 C3.495 3.96 3.495 3.96 4 8 C3.01 8 2.02 8 1 8 C1.09410156 8.71542969 1.18820313 9.43085937 1.28515625 10.16796875 C0.88803548 14.11197643 -0.82729108 15.49576473 -3.5625 18.3125 C-4.49272779 19.28985063 -5.42241362 20.26771736 -6.3515625 21.24609375 C-7.22554687 22.15488281 -8.09953125 23.06367187 -9 24 C-16.7372358 32.57680819 -24.15315283 41.47418352 -31.4375 50.4375 C-32.95591596 52.29364682 -34.47698864 54.14762195 -36 56 C-36.49741699 56.60650391 -36.99483398 57.21300781 -37.50732422 57.83789062 C-39.12031648 59.79593145 -40.74614799 61.74264236 -42.375 63.6875 C-42.88732178 64.31261475 -43.39964355 64.93772949 -43.92749023 65.58178711 C-45.21952378 67.11228394 -46.60376342 68.56393084 -48 70 C-48.99 70 -49.98 70 -51 70 C-50.60830472 64.59037064 -47.45950947 61.1103227 -44.3125 56.9375 C-43.11830276 55.32141166 -41.92564772 53.70418281 -40.734375 52.0859375 C-40.11626953 51.24901367 -39.49816406 50.41208984 -38.86132812 49.54980469 C-35.85830202 45.43600554 -32.96549568 41.24714611 -30.0625 37.0625 C-28.31031818 34.55938311 -26.55446771 32.05889048 -24.796875 29.55957031 C-23.57162357 27.81425292 -22.35043383 26.06607876 -21.1328125 24.31542969 C-19.29217422 21.677627 -17.43010074 19.05625835 -15.5625 16.4375 C-15.00763916 15.6338501 -14.45277832 14.8302002 -13.88110352 14.00219727 C-10.31744387 9.0611952 -7.71230876 7.04913287 -2 5 C-0.49547543 2.45631001 -0.49547543 2.45631001 0 0 Z " fill="#DD2122" transform="translate(172,94)"/>
<path d="M0 0 C1.12093552 0.02009628 2.24187103 0.04019257 3.39677429 0.06089783 C5.21094597 0.10145042 5.21094597 0.10145042 7.06176758 0.14282227 C8.30050125 0.16643326 9.53923492 0.19004425 10.81550598 0.21437073 C14.10518395 0.27801683 17.39472616 0.34622204 20.68426514 0.41662598 C24.0424462 0.48738001 27.400742 0.55215462 30.7590332 0.61743164 C37.34574158 0.74667953 43.93230623 0.88193766 50.51879883 1.02172852 C50.51879883 1.35172852 50.51879883 1.68172852 50.51879883 2.02172852 C53.15879883 2.35172852 55.79879883 2.68172852 58.51879883 3.02172852 C59.01379883 4.50672852 59.01379883 4.50672852 59.51879883 6.02172852 C60.84911133 5.71235352 60.84911133 5.71235352 62.20629883 5.39672852 C65.78971889 4.99105832 67.4444419 5.17711436 70.51879883 7.02172852 C71.33129883 9.14672852 71.33129883 9.14672852 71.51879883 11.02172852 C72.83879883 11.02172852 74.15879883 11.02172852 75.51879883 11.02172852 C76.01379883 12.50672852 76.01379883 12.50672852 76.51879883 14.02172852 C73.11317031 14.80015789 70.01114127 15.12150973 66.51879883 15.02172852 C66.51879883 14.36172852 66.51879883 13.70172852 66.51879883 13.02172852 C61.23879883 13.02172852 55.95879883 13.02172852 50.51879883 13.02172852 C50.51879883 11.70172852 50.51879883 10.38172852 50.51879883 9.02172852 C49.34317383 9.14741211 49.34317383 9.14741211 48.14379883 9.27563477 C32.95688618 10.56848617 17.72371144 9.63175094 2.51879883 9.02172852 C2.51879883 8.03172852 2.51879883 7.04172852 2.51879883 6.02172852 C0.86879883 6.35172852 -0.78120117 6.68172852 -2.48120117 7.02172852 C-2.81120117 6.03172852 -3.14120117 5.04172852 -3.48120117 4.02172852 C-5.13120117 3.69172852 -6.78120117 3.36172852 -8.48120117 3.02172852 C-8.48120117 2.36172852 -8.48120117 1.70172852 -8.48120117 1.02172852 C-5.34604928 -0.02332211 -3.28340797 -0.066406 0 0 Z " fill="#DA0E15" transform="translate(122.481201171875,174.978271484375)"/>
<path d="M0 0 C0.66 0 1.32 0 2 0 C2.33 1.32 2.66 2.64 3 4 C3.99 4 4.98 4 6 4 C6 4.66 6 5.32 6 6 C6.66 6 7.32 6 8 6 C8.33 6.99 8.66 7.98 9 9 C11.01508358 9.73323796 11.01508358 9.73323796 13 10 C13 10.66 13 11.32 13 12 C12.34 12.33 11.68 12.66 11 13 C11 13.66 11 14.32 11 15 C11.4125 14.484375 11.825 13.96875 12.25 13.4375 C14 12 14 12 15.875 11.9375 C19.21514724 13.60757362 20.91283457 15.9587018 23 19 C22.67 20.32 22.34 21.64 22 23 C-42.02 23 -106.04 23 -172 23 C-172 22.67 -172 22.34 -172 22 C-136.69 21.67 -101.38 21.34 -65 21 C-64.505 19.515 -64.505 19.515 -64 18 C-61.69 18 -59.38 18 -57 18 C-57 18.66 -57 19.32 -57 20 C-56.20722656 19.9278125 -55.41445312 19.855625 -54.59765625 19.78125 C-33.43363502 18.09748257 -12.17842632 19.02305382 9 20 C8.67 19.01 8.34 18.02 8 17 C8 16.01 8 15.02 8 14 C7.67 14 7.34 14 7 14 C6.67 12.35 6.34 10.7 6 9 C3.69 9.33 1.38 9.66 -1 10 C-1.02689216 8.52093108 -1.04634621 7.04172517 -1.0625 5.5625 C-1.07410156 4.73878906 -1.08570313 3.91507813 -1.09765625 3.06640625 C-1 1 -1 1 0 0 Z " fill="#E25C5E" transform="translate(206,196)"/>
<path d="M0 0 C0.66 0.33 1.32 0.66 2 1 C1.67 1.99 1.34 2.98 1 4 C3.64 4 6.28 4 9 4 C10.125 10.75 10.125 10.75 9 13 C24.84 13.33 40.68 13.66 57 14 C57 13.34 57 12.68 57 12 C58.40076782 12.09896828 58.40076782 12.09896828 59.82983398 12.19993591 C70.57259725 12.91980883 81.29963164 13.2864898 92.0625 13.53515625 C93.83325843 13.5783026 95.60401029 13.621719 97.37475586 13.66539001 C101.97764038 13.77819926 106.5806032 13.88740374 111.18359375 13.99578857 C115.90369996 14.10759241 120.62372052 14.22290067 125.34375 14.33789062 C134.56242066 14.56197205 143.78117811 14.7822352 153 15 C153 15.33 153 15.66 153 16 C101.19 16 49.38 16 -4 16 C-5.9955516 12.00889681 -6.19546065 10.30013434 -6 6 C-5.34 6 -4.68 6 -4 6 C-4 5.34 -4 4.68 -4 4 C-2.70766393 2.62689293 -1.37562854 1.28965176 0 0 Z " fill="#C51617" transform="translate(36,202)"/>
<path d="M0 0 C1.125 1.8125 1.125 1.8125 1 4 C-4.09172554 13.74069235 -14.27868024 21.57477991 -23 28 C-22.67 25.69 -22.34 23.38 -22 21 C-20.68 21 -19.36 21 -18 21 C-18 20.34 -18 19.68 -18 19 C-17.01 19 -16.02 19 -15 19 C-15 18.34 -15 17.68 -15 17 C-14.01 16.67 -13.02 16.34 -12 16 C-12 14.35 -12 12.7 -12 11 C-12.99 11 -13.98 11 -15 11 C-15 10.34 -15 9.68 -15 9 C-16.32 8.67 -17.64 8.34 -19 8 C-19 6 -19 6 -17 3.875 C-16.34 3.25625 -15.68 2.6375 -15 2 C-17.64 2.33 -20.28 2.66 -23 3 C-24.07525194 5.65228812 -25.09456151 8.28368454 -26 11 C-27.8125 13.1875 -27.8125 13.1875 -30 15 C-31.32 15 -32.64 15 -34 15 C-34.33 16.32 -34.66 17.64 -35 19 C-35.66 19 -36.32 19 -37 19 C-37 19.66 -37 20.32 -37 21 C-37.99 21 -38.98 21 -40 21 C-38.3997938 17.20062773 -35.97157938 14.57197711 -33.1875 11.5625 C-32.33542969 10.63566406 -31.48335937 9.70882812 -30.60546875 8.75390625 C-22.23990122 -0.08826033 -12.02359441 -8.21123521 0 0 Z " fill="#FD3A3C" transform="translate(236,37)"/>
<path d="M0 0 C7.98013807 -0.06963738 15.9601483 -0.12288062 23.94051552 -0.15543652 C27.64648834 -0.171065 31.35225264 -0.19225119 35.05810547 -0.22631836 C38.63724175 -0.25901319 42.21617798 -0.27687419 45.79545212 -0.28463173 C47.15815757 -0.29015716 48.52085259 -0.30094704 49.88347244 -0.31719017 C51.79801931 -0.33909636 53.71276925 -0.34022653 55.62744141 -0.34057617 C56.71554108 -0.34723801 57.80364075 -0.35389984 58.92471313 -0.36076355 C63.97759048 0.2319922 67.80013858 2.4125298 71.34326172 6.00268555 C71.92341034 6.58306076 72.50355896 7.16343597 73.10128784 7.76139832 C73.70465973 8.38025406 74.30803162 8.9991098 74.9296875 9.63671875 C75.56488312 10.27615921 76.20007874 10.91559967 76.85452271 11.57441711 C78.8685411 13.60513964 80.87183727 15.64607407 82.875 17.6875 C84.24409526 19.07165272 85.61387991 20.45512391 86.984375 21.83789062 C90.33094827 25.21742347 93.66794904 28.60615049 97 32 C96.01 32.495 96.01 32.495 95 33 C94.67 33.99 94.34 34.98 94 36 C93.34 36 92.68 36 92 36 C91.67 35.01 91.34 34.02 91 33 C91.99 33 92.98 33 94 33 C94 32.34 94 31.68 94 31 C92.35 30.67 90.7 30.34 89 30 C89 29.01 89 28.02 89 27 C88.34 27 87.68 27 87 27 C87 26.34 87 25.68 87 25 C86.01 25 85.02 25 84 25 C83.505 23.02 83.505 23.02 83 21 C82.01 21 81.02 21 80 21 C79.505 19.02 79.505 19.02 79 17 C77.35 17 75.7 17 74 17 C73.505 14.03 73.505 14.03 73 11 C71.68 11 70.36 11 69 11 C68.505 9.02 68.505 9.02 68 7 C65.6739143 6.61936779 63.33944736 6.28730055 61 6 C60.67 6.33 60.34 6.66 60 7 C57.66702567 7.04092937 55.33294775 7.04241723 53 7 C53 6.67 53 6.34 53 6 C50.525 5.505 50.525 5.505 48 5 C48 4.67 48 4.34 48 4 C37.44 3.67 26.88 3.34 16 3 C16 2.67 16 2.34 16 2 C10.72 1.67 5.44 1.34 0 1 C0 0.67 0 0.34 0 0 Z " fill="#C22A2D" transform="translate(125,175)"/>
<path d="M0 0 C1.09570312 0.00902344 2.19140625 0.01804688 3.3203125 0.02734375 C4.16335937 0.03894531 5.00640625 0.05054688 5.875 0.0625 C5.545 0.7225 5.215 1.3825 4.875 2.0625 C3.9159375 2.2171875 3.9159375 2.2171875 2.9375 2.375 C0.60721829 2.88445485 0.60721829 2.88445485 -0.375 5.5 C-1.21863292 7.93741227 -1.21863292 7.93741227 -1.125 10.0625 C0.525 10.0625 2.175 10.0625 3.875 10.0625 C4.205 11.3825 4.535 12.7025 4.875 14.0625 C5.865 14.0625 6.855 14.0625 7.875 14.0625 C7.99875 14.990625 7.99875 14.990625 8.125 15.9375 C8.66310733 18.24596804 8.66310733 18.24596804 10.875 19.0625 C11.535 19.3925 12.195 19.7225 12.875 20.0625 C12.99875 20.7225 13.1225 21.3825 13.25 22.0625 C13.45625 22.7225 13.6625 23.3825 13.875 24.0625 C14.865 24.3925 15.855 24.7225 16.875 25.0625 C17.865 25.3925 18.855 25.7225 19.875 26.0625 C20.5625 28.125 20.5625 28.125 20.875 30.0625 C21.865 30.3925 22.855 30.7225 23.875 31.0625 C23.875 32.0525 23.875 33.0425 23.875 34.0625 C26.92763664 35.04370464 28.82236336 35.04370464 31.875 34.0625 C31.895625 34.660625 31.91625 35.25875 31.9375 35.875 C33.1567487 38.71991363 34.75152014 39.30859929 37.54614258 40.43579102 C42.4728128 41.76158643 47.61633192 41.56397162 52.6875 41.625 C54.94415843 41.65932664 57.20071177 41.70186813 59.45703125 41.75390625 C60.44936768 41.76623291 61.4417041 41.77855957 62.46411133 41.79125977 C64.875 42.0625 64.875 42.0625 66.875 44.0625 C62.2664965 43.96867464 57.65850043 43.86251753 53.05053711 43.74511719 C51.48420919 43.70692591 49.91779651 43.67205606 48.35131836 43.640625 C46.094582 43.59475929 43.83842417 43.53680231 41.58203125 43.4765625 C40.53798882 43.45923569 40.53798882 43.45923569 39.47285461 43.44155884 C26.02065764 43.03676089 17.51908993 30.84235611 8.6875 21.875 C1.96788143 15.00492186 1.96788143 15.00492186 -5.2109375 8.62890625 C-8.125 6.0625 -8.125 6.0625 -8.5625 3.1875 C-8.3459375 2.135625 -8.3459375 2.135625 -8.125 1.0625 C-5.36047967 -0.31976016 -3.0788637 -0.03275387 0 0 Z " fill="#F85259" transform="translate(37.125,35.9375)"/>
<path d="M0 0 C1.65 0 3.3 0 5 0 C1.42680965 4.27039822 -2.24019259 8.28365581 -6.21484375 12.1796875 C-8.07055778 14.07194732 -9.78398668 16.04320916 -11.5 18.0625 C-14.71141373 21.79822618 -18.18623381 24.88672148 -22 28 C-22 26.68 -22 25.36 -22 24 C-21.01 24 -20.02 24 -19 24 C-19.33 21.36 -19.66 18.72 -20 16 C-20.99 16 -21.98 16 -23 16 C-23.061875 16.763125 -23.12375 17.52625 -23.1875 18.3125 C-24 21 -24 21 -26.4375 22.8125 C-29 24 -29 24 -31 24 C-29.62416025 21.0884719 -28.04666973 18.51234472 -26.1796875 15.890625 C-25.64472656 15.13652344 -25.10976562 14.38242188 -24.55859375 13.60546875 C-24.00300781 12.82816406 -23.44742188 12.05085938 -22.875 11.25 C-22.31167969 10.45722656 -21.74835938 9.66445312 -21.16796875 8.84765625 C-19.78111545 6.89665924 -18.39172386 4.94752412 -17 3 C-15.90101298 6.29696105 -16.12875556 7.40494903 -16.9375 10.6875 C-17.13214844 11.49574219 -17.32679688 12.30398437 -17.52734375 13.13671875 C-17.68332031 13.75160156 -17.83929688 14.36648437 -18 15 C-17.360625 14.814375 -16.72125 14.62875 -16.0625 14.4375 C-15.381875 14.293125 -14.70125 14.14875 -14 14 C-13.67 14.33 -13.34 14.66 -13 15 C-12.67 12.69 -12.34 10.38 -12 8 C-10.02 8 -8.04 8 -6 8 C-6 7.34 -6 6.68 -6 6 C-5.01 6 -4.02 6 -3 6 C-3 5.34 -3 4.68 -3 4 C-2.01 4 -1.02 4 0 4 C0 2.68 0 1.36 0 0 Z " fill="#EC222E" transform="translate(195,78)"/>
<path d="M0 0 C1.125 1.8125 1.125 1.8125 1 4 C-1.12958117 7.86479546 -3.28086509 10.60912756 -7 13 C-7.495 11.02 -7.495 11.02 -8 9 C-7.01 8.67 -6.02 8.34 -5 8 C-4.06619039 3.46859347 -4.06619039 3.46859347 -5 -1 C-5.7115625 -0.67128906 -6.423125 -0.34257813 -7.15625 -0.00390625 C-10.16941946 1.05980879 -12.32835888 1.10259097 -15.5 1.0625 C-19.65220616 1.31244161 -19.65220616 1.31244161 -22.68359375 3.921875 C-23.90133237 6.24354489 -24.95052289 8.59879638 -26 11 C-28.0625 13.5625 -28.0625 13.5625 -30 15 C-31.32 15 -32.64 15 -34 15 C-34.33 16.32 -34.66 17.64 -35 19 C-35.66 19 -36.32 19 -37 19 C-37 19.66 -37 20.32 -37 21 C-37.99 21 -38.98 21 -40 21 C-38.3997938 17.20062773 -35.97157938 14.57197711 -33.1875 11.5625 C-32.33542969 10.63566406 -31.48335937 9.70882812 -30.60546875 8.75390625 C-22.23990122 -0.08826033 -12.02359441 -8.21123521 0 0 Z " fill="#F35554" transform="translate(236,37)"/>
<path d="M0 0 C0.66 0.33 1.32 0.66 2 1 C1.67 1.99 1.34 2.98 1 4 C3.64 4 6.28 4 9 4 C10.125 10.75 10.125 10.75 9 13 C11.64 13 14.28 13 17 13 C17 13.33 17 13.66 17 14 C13.73063506 14.25485425 10.45983259 14.47442831 7.1875 14.6875 C6.25873047 14.76033203 5.32996094 14.83316406 4.37304688 14.90820312 C3.48037109 14.96298828 2.58769531 15.01777344 1.66796875 15.07421875 C0.84578857 15.13182373 0.0236084 15.18942871 -0.82348633 15.2487793 C-3 15 -3 15 -4.7800293 13.69458008 C-6.58910909 11.18170779 -6.20032336 9.00485044 -6 6 C-5.34 6 -4.68 6 -4 6 C-4 5.34 -4 4.68 -4 4 C-2.70766393 2.62689293 -1.37562854 1.28965176 0 0 Z " fill="#D50A11" transform="translate(36,202)"/>
<path d="M0 0 C3.19666311 2.60468846 3.87486028 4.97802561 4.375 9.0625 C3.3135815 20.20739427 -5.44423932 29.38910594 -12 38 C-13.24546405 35.50907189 -12.7767578 34.58919267 -12 32 C-11.01 32 -10.02 32 -9 32 C-9 30.02 -9 28.04 -9 26 C-8.01 26 -7.02 26 -6 26 C-5.690625 24.741875 -5.38125 23.48375 -5.0625 22.1875 C-4.46021952 19.73822606 -3.79911359 17.39734077 -3 15 C-2.835 14.154375 -2.67 13.30875 -2.5 12.4375 C-2 10 -2 10 -1 8 C-2.72438619 3.62476717 -2.72438619 3.62476717 -6.1875 0.625 C-7.0846875 0.315625 -7.0846875 0.315625 -8 0 C-4.95904675 -0.97744926 -3.00367313 -1.16271218 0 0 Z " fill="#FA4348" transform="translate(185,36)"/>
<path d="M0 0 C0 3 0 3 -1 5 C0.32 4.67 1.64 4.34 3 4 C3 7.50011767 2.5411266 7.88741111 0.296875 10.3984375 C-0.27160156 11.04296875 -0.84007812 11.6875 -1.42578125 12.3515625 C-2.32876953 13.35316406 -2.32876953 13.35316406 -3.25 14.375 C-4.42268516 15.69459298 -5.59457767 17.01489085 -6.765625 18.3359375 C-7.32572266 18.96081055 -7.88582031 19.58568359 -8.46289062 20.22949219 C-9.78779708 21.75557567 -11.02111612 23.36029805 -12.234375 24.9765625 C-12.81703125 25.64429688 -13.3996875 26.31203125 -14 27 C-14.99 27 -15.98 27 -17 27 C-16.44775406 23.180647 -15.45457211 20.80728 -13.1640625 17.71484375 C-12.59429687 16.93689453 -12.02453125 16.15894531 -11.4375 15.35742188 C-10.839375 14.55884766 -10.24125 13.76027344 -9.625 12.9375 C-9.03460938 12.13505859 -8.44421875 11.33261719 -7.8359375 10.50585938 C-5.24409992 6.98878248 -2.62235647 3.49435127 0 0 Z " fill="#C1393F" transform="translate(138,137)"/>
<path d="M0 0 C0 0.66 0 1.32 0 2 C1.32 2.33 2.64 2.66 4 3 C3.67 4.65 3.34 6.3 3 8 C2.01 8 1.02 8 0 8 C0 8.66 0 9.32 0 10 C-1.98 10 -3.96 10 -6 10 C-6 12.64 -6 15.28 -6 18 C-7.98 17.67 -9.96 17.34 -12 17 C-12.29694911 12.10033971 -11.65531908 7.18201152 -8.625 3.1875 C-5.65416378 1.0165043 -3.73033092 0 0 0 Z " fill="#F9272B" transform="translate(189,76)"/>
<path d="M0 0 C-0.50388758 4.38769803 -1.92215601 6.45152766 -4.9375 9.625 C-7.21337757 12.04544329 -9.15093643 14.22640465 -11 17 C-14.125 17.1875 -14.125 17.1875 -17 17 C-15.73892416 10.94683596 -13.38513048 6.4249049 -9 2 C-3.31028207 -1.65514104 -3.31028207 -1.65514104 0 0 Z " fill="#CE3F47" transform="translate(154,125)"/>
<path d="M0 0 C0.66 0 1.32 0 2 0 C2.33 1.32 2.66 2.64 3 4 C3.99 4 4.98 4 6 4 C6 4.66 6 5.32 6 6 C6.66 6 7.32 6 8 6 C8.33 6.99 8.66 7.98 9 9 C11.01508358 9.73323796 11.01508358 9.73323796 13 10 C13 10.66 13 11.32 13 12 C12.01 12.495 12.01 12.495 11 13 C11 13.66 11 14.32 11 15 C11.45375 14.505 11.9075 14.01 12.375 13.5 C14 12 14 12 16 12 C16 13.32 16 14.64 16 16 C16.99 16.33 17.98 16.66 19 17 C18.67 17.66 18.34 18.32 18 19 C18.66 19.33 19.32 19.66 20 20 C16.37 20 12.74 20 9 20 C8 17 8 17 8 14 C7.67 14 7.34 14 7 14 C6.67 12.35 6.34 10.7 6 9 C3.69 9.33 1.38 9.66 -1 10 C-1.02689216 8.52093108 -1.04634621 7.04172517 -1.0625 5.5625 C-1.07410156 4.73878906 -1.08570313 3.91507813 -1.09765625 3.06640625 C-1 1 -1 1 0 0 Z " fill="#D50C16" transform="translate(206,196)"/>
<path d="M0 0 C0.99 0 1.98 0 3 0 C3.33 2.64 3.66 5.28 4 8 C3.01 8 2.02 8 1 8 C0.67 9.32 0.34 10.64 0 12 C-0.66 12 -1.32 12 -2 12 C-2.33 13.32 -2.66 14.64 -3 16 C-3.99 16 -4.98 16 -6 16 C-6 16.66 -6 17.32 -6 18 C-6.66 18 -7.32 18 -8 18 C-8 18.66 -8 19.32 -8 20 C-9.32 20 -10.64 20 -12 20 C-12.125 17.125 -12.125 17.125 -12 14 C-11.34 13.34 -10.68 12.68 -10 12 C-9.01 12 -8.02 12 -7 12 C-7.33 10.68 -7.66 9.36 -8 8 C-6.576875 7.4121875 -6.576875 7.4121875 -5.125 6.8125 C-1.65872662 4.80206144 -1.0197307 3.77300358 0 0 Z " fill="#E32126" transform="translate(172,94)"/>
<path d="M0 0 C1 3 1 3 0.328125 5.0078125 C-0.02765625 5.70648438 -0.3834375 6.40515625 -0.75 7.125 C-1.09546875 7.82882813 -1.4409375 8.53265625 -1.796875 9.2578125 C-3 11 -3 11 -6 12 C-7.02700444 14.32891096 -7.02700444 14.32891096 -7.6875 17.0625 C-7.93886719 17.98160156 -8.19023438 18.90070313 -8.44921875 19.84765625 C-8.63097656 20.55792969 -8.81273437 21.26820313 -9 22 C-9.66 22 -10.32 22 -11 22 C-11.33 23.65 -11.66 25.3 -12 27 C-12.66 27 -13.32 27 -14 27 C-14 27.66 -14 28.32 -14 29 C-14.66 29 -15.32 29 -16 29 C-15.67 31.64 -15.34 34.28 -15 37 C-18 35 -18 35 -18.45117188 33.09521484 C-18.49877205 26.97727077 -17.12612766 23.48149128 -13.5 18.625 C-13.05092285 17.98941162 -12.6018457 17.35382324 -12.13916016 16.69897461 C-10.77924264 14.78408192 -9.39224138 12.89146936 -8 11 C-7.18336674 9.86437927 -6.36817409 8.72772067 -5.5546875 7.58984375 C-3.72231729 5.04488512 -1.87233307 2.51562069 0 0 Z " fill="#C82E35" transform="translate(46,179)"/>
<path d="M0 0 C1.32 0 2.64 0 4 0 C4.33 1.32 4.66 2.64 5 4 C6.32 4 7.64 4 9 4 C9.33 4.99 9.66 5.98 10 7 C6.59437148 7.77842938 3.49234244 8.09978121 0 8 C0 7.34 0 6.68 0 6 C-5.28 6 -10.56 6 -16 6 C-16 4.68 -16 3.36 -16 2 C-10.72 2 -5.44 2 0 2 C0 1.34 0 0.68 0 0 Z " fill="#DC0B15" transform="translate(189,182)"/>
<path d="M0 0 C1.65 0 3.3 0 5 0 C1.42680965 4.27039822 -2.24019259 8.28365581 -6.21484375 12.1796875 C-8.07055778 14.07194732 -9.78398668 16.04320916 -11.5 18.0625 C-14.71141373 21.79822618 -18.18623381 24.88672148 -22 28 C-22 26.68 -22 25.36 -22 24 C-21.01 24 -20.02 24 -19 24 C-19 22.68 -19 21.36 -19 20 C-18.01 20 -17.02 20 -16 20 C-16 19.34 -16 18.68 -16 18 C-15.01 17.67 -14.02 17.34 -13 17 C-12.67 14.03 -12.34 11.06 -12 8 C-10.02 8 -8.04 8 -6 8 C-6 7.34 -6 6.68 -6 6 C-5.01 6 -4.02 6 -3 6 C-3 5.34 -3 4.68 -3 4 C-2.01 4 -1.02 4 0 4 C0 2.68 0 1.36 0 0 Z " fill="#E52C32" transform="translate(195,78)"/>
<path d="M0 0 C6.18134869 5.10448822 11.79822878 10.68294942 17.4375 16.375 C18.35982422 17.30183594 19.28214844 18.22867188 20.23242188 19.18359375 C22.49058625 21.45345846 24.74636942 23.72563538 27 26 C26.34 26.33 25.68 26.66 25 27 C24.67 27.99 24.34 28.98 24 30 C23.34 30 22.68 30 22 30 C21.67 29.01 21.34 28.02 21 27 C21.99 27 22.98 27 24 27 C24 26.34 24 25.68 24 25 C22.35 24.67 20.7 24.34 19 24 C19 23.01 19 22.02 19 21 C18.34 21 17.68 21 17 21 C17 20.34 17 19.68 17 19 C16.01 19 15.02 19 14 19 C13.67 17.68 13.34 16.36 13 15 C12.01 15 11.02 15 10 15 C9.67 13.68 9.34 12.36 9 11 C7.35 11 5.7 11 4 11 C3.67 9.02 3.34 7.04 3 5 C1.68 4.67 0.36 4.34 -1 4 C-0.34 4 0.32 4 1 4 C0.67 2.68 0.34 1.36 0 0 Z " fill="#CC3638" transform="translate(195,181)"/>
<path d="M0 0 C2 2 2 2 2.0625 5.8125 C2.04316406 6.52019531 2.02382812 7.22789063 2.00390625 7.95703125 C1.99923169 10.40182545 2.40818863 12.63275454 3 15 C2.54109375 15.35191406 2.0821875 15.70382813 1.609375 16.06640625 C-2.83872805 19.64544715 -5.44736238 22.89472477 -8 28 C-9.65 28 -11.3 28 -13 28 C-11.13791509 24.58617767 -9.24955767 21.34986532 -6.98828125 18.1796875 C-2.54695427 11.94428768 0 7.72863495 0 0 Z " fill="#F62833" transform="translate(106,82)"/>
<path d="M0 0 C0 4.05676087 -1.58637631 5.58744585 -3.9375 8.875 C-4.75802324 10.03240271 -5.57832899 11.18995963 -6.3984375 12.34765625 C-6.82479492 12.94465332 -7.25115234 13.54165039 -7.69042969 14.15673828 C-9.84411916 17.18812447 -11.95127876 20.25146335 -14.0625 23.3125 C-14.82399996 24.41291185 -15.58569835 25.51318644 -16.34765625 26.61328125 C-16.89292969 27.40089844 -17.43820313 28.18851563 -18 29 C-19.30048841 26.39902318 -19.56471422 23.86044938 -20 21 C-19.01 20.67 -18.02 20.34 -17 20 C-16.566875 18.7625 -16.566875 18.7625 -16.125 17.5 C-15.568125 16.2625 -15.568125 16.2625 -15 15 C-12.375 14.1875 -12.375 14.1875 -10 14 C-9.34 11.03 -8.68 8.06 -8 5 C-6.68 4.67 -5.36 4.34 -4 4 C-3.67 3.01 -3.34 2.02 -3 1 C-2.01 0.67 -1.02 0.34 0 0 Z " fill="#EE6060" transform="translate(145,111)"/>
<path d="M0 0 C1.12093552 0.02009628 2.24187103 0.04019257 3.39677429 0.06089783 C5.21094597 0.10145042 5.21094597 0.10145042 7.06176758 0.14282227 C8.30050125 0.16643326 9.53923492 0.19004425 10.81550598 0.21437073 C14.10518395 0.27801683 17.39472616 0.34622204 20.68426514 0.41662598 C24.0424462 0.48738001 27.400742 0.55215462 30.7590332 0.61743164 C37.34574158 0.74667953 43.93230623 0.88193766 50.51879883 1.02172852 C50.51879883 1.35172852 50.51879883 1.68172852 50.51879883 2.02172852 C46.25458459 2.16759319 41.99026646 2.3097934 37.72583008 2.44897461 C36.28309034 2.49653395 34.84038008 2.5449984 33.39770508 2.59448242 C23.10055506 2.94682904 12.82185956 3.08412929 2.51879883 3.02172852 C2.51879883 3.68172852 2.51879883 4.34172852 2.51879883 5.02172852 C1.85879883 4.69172852 1.19879883 4.36172852 0.51879883 4.02172852 C-1.01788983 3.79705021 -2.56088171 3.61376046 -4.10620117 3.45922852 C-4.9234668 3.37543945 -5.74073242 3.29165039 -6.58276367 3.20532227 C-7.20924805 3.14473633 -7.83573242 3.08415039 -8.48120117 3.02172852 C-8.48120117 2.36172852 -8.48120117 1.70172852 -8.48120117 1.02172852 C-5.34604928 -0.02332211 -3.28340797 -0.066406 0 0 Z " fill="#CC121D" transform="translate(122.481201171875,174.978271484375)"/>
<path d="M0 0 C0.99 0 1.98 0 3 0 C3.0309375 0.8971875 3.0309375 0.8971875 3.0625 1.8125 C4.2817487 4.65741363 5.87652014 5.24609929 8.67114258 6.37329102 C13.5978128 7.69908643 18.74133192 7.50147162 23.8125 7.5625 C26.06915843 7.59682664 28.32571177 7.63936813 30.58203125 7.69140625 C32.07053589 7.70989624 32.07053589 7.70989624 33.58911133 7.72875977 C36 8 36 8 38 10 C33.3914965 9.90617464 28.78350043 9.80001753 24.17553711 9.68261719 C22.60920919 9.64442591 21.04279651 9.60955606 19.47631836 9.578125 C17.219582 9.53225929 14.96342417 9.47430231 12.70703125 9.4140625 C11.66298882 9.39673569 11.66298882 9.39673569 10.59785461 9.37905884 C6.66655898 9.26075992 3.49083428 8.86396397 0 7 C-1.8125 4.375 -1.8125 4.375 -3 2 C-2.01 2 -1.02 2 0 2 C0 1.34 0 0.68 0 0 Z " fill="#F86E6D" transform="translate(66,70)"/>
<path d="M0 0 C2.97 0 5.94 0 9 0 C7.19489423 3.61021153 5.22594005 6.82813092 3 10.1875 C2.29875 11.25355469 1.5975 12.31960937 0.875 13.41796875 C-1 16 -1 16 -3 17 C-3 15.35 -3 13.7 -3 12 C-2.34 12 -1.68 12 -1 12 C-0.83126522 10.56274129 -0.66509263 9.12518162 -0.5 7.6875 C-0.4071875 6.88699219 -0.314375 6.08648437 -0.21875 5.26171875 C0.04813463 2.88103445 0.04813463 2.88103445 0 0 Z " fill="#F83236" transform="translate(149,94)"/>
<path d="M0 0 C5.875 4.375 5.875 4.375 7 10 C-0.92 10 -8.84 10 -17 10 C-17 9.34 -17 8.68 -17 8 C-10.73 7.67 -4.46 7.34 2 7 C2 6.34 2 5.68 2 5 C1.34 4.67 0.68 4.34 0 4 C0 2.68 0 1.36 0 0 Z " fill="#BE1320" transform="translate(222,208)"/>
<path d="M0 0 C2.64824722 0.35787125 4.55535876 0.68239911 6.75 2.25 C8.31760089 4.44464124 8.64212875 6.35175278 9 9 C8.01 8.67 7.02 8.34 6 8 C6 7.34 6 6.68 6 6 C3.6739143 5.61936779 1.33944736 5.28730055 -1 5 C-1.33 5.33 -1.66 5.66 -2 6 C-4.33297433 6.04092937 -6.66705225 6.04241723 -9 6 C-9 5.67 -9 5.34 -9 5 C-10.65 4.67 -12.3 4.34 -14 4 C-14 3.67 -14 3.34 -14 3 C-7.07 2.01 -7.07 2.01 0 1 C0 0.67 0 0.34 0 0 Z " fill="#D80E1D" transform="translate(187,176)"/>
<path d="M0 0 C0.66 1.32 1.32 2.64 2 4 C1.360625 4.20625 0.72125 4.4125 0.0625 4.625 C-2.34925077 5.89538209 -2.34925077 5.89538209 -2.75 9.125 C-2.8325 10.07375 -2.915 11.0225 -3 12 C-4.32 12 -5.64 12 -7 12 C-6.87625 13.11375 -6.87625 13.11375 -6.75 14.25 C-7 17 -7 17 -8.75 19.25 C-10.94424728 20.95663677 -12.28438663 21.61205523 -15 22 C-13.21541814 17.96704664 -10.63737998 14.55207108 -8.0625 11 C-7.39831055 10.07574219 -7.39831055 10.07574219 -6.72070312 9.1328125 C-4.51169245 6.06455922 -2.28299398 3.01385344 0 0 Z " fill="#E34C50" transform="translate(163,102)"/>
<path d="M0 0 C1.09570312 0.00902344 2.19140625 0.01804688 3.3203125 0.02734375 C4.16335937 0.03894531 5.00640625 0.05054688 5.875 0.0625 C5.545 0.7225 5.215 1.3825 4.875 2.0625 C3.9159375 2.2171875 3.9159375 2.2171875 2.9375 2.375 C2.256875 2.601875 1.57625 2.82875 0.875 3.0625 C-0.37214403 5.47202023 -0.37214403 5.47202023 -1.125 8.0625 C-1.455 8.7225 -1.785 9.3825 -2.125 10.0625 C-6.8125 6.546875 -6.8125 6.546875 -8.125 5.0625 C-8.125 3.7425 -8.125 2.4225 -8.125 1.0625 C-5.36047967 -0.31976016 -3.0788637 -0.03275387 0 0 Z " fill="#FC363D" transform="translate(37.125,35.9375)"/>
<path d="M0 0 C5.53771745 -0.28643366 9.24803827 -0.24524216 14 3 C15.125 4.8125 15.125 4.8125 15 7 C12.87041883 10.86479546 10.71913491 13.60912756 7 16 C6.67 14.68 6.34 13.36 6 12 C6.99 11.67 7.98 11.34 9 11 C9.93380961 6.46859347 9.93380961 6.46859347 9 2 C6.03 1.67 3.06 1.34 0 1 C0 0.67 0 0.34 0 0 Z " fill="#F37576" transform="translate(222,34)"/>
<path d="M0 0 C0 4.26548598 -2.37745667 6.69457261 -4.8125 10 C-5.26431641 10.6290625 -5.71613281 11.258125 -6.18164062 11.90625 C-8.29994504 14.82548995 -10.39764014 17.49069966 -13 20 C-12.34 17.36 -11.68 14.72 -11 12 C-10.34 12 -9.68 12 -9 12 C-8.67 10.68 -8.34 9.36 -8 8 C-8.66 7.67 -9.32 7.34 -10 7 C-8 4 -8 4 -5.875 3.3125 C-5.25625 3.209375 -4.6375 3.10625 -4 3 C-4 2.34 -4 1.68 -4 1 C-2.68 0.67 -1.36 0.34 0 0 Z " fill="#F86262" transform="translate(171,74)"/>
<path d="M0 0 C0.66 0 1.32 0 2 0 C1.67 1.32 1.34 2.64 1 4 C2.65 3.34 4.3 2.68 6 2 C4.4797696 6.41116035 2.10711129 10.02949632 -0.5625 13.8125 C-0.97435547 14.40998047 -1.38621094 15.00746094 -1.81054688 15.62304688 C-2.84408586 17.1031559 -3.91854416 18.55453163 -5 20 C-5.33 20 -5.66 20 -6 20 C-6 18.02 -6 16.04 -6 14 C-5.01 13.67 -4.02 13.34 -3 13 C-2.67 12.01 -2.34 11.02 -2 10 C-1.34 9.67 -0.68 9.34 0 9 C-0.185625 8.071875 -0.37125 7.14375 -0.5625 6.1875 C-1 3 -1 3 0 0 Z " fill="#E94D51" transform="translate(120,138)"/>
<path d="M0 0 C0.99 0.33 1.98 0.66 3 1 C3 3.64 3 6.28 3 9 C-1.75 10.125 -1.75 10.125 -4 9 C-3.6875 5.625 -3.6875 5.625 -3 2 C-2.01 1.34 -1.02 0.68 0 0 Z " fill="#DD111D" transform="translate(58,165)"/>
<path d="M0 0 C1 3 1 3 0.328125 5.0078125 C-0.02765625 5.70648438 -0.3834375 6.40515625 -0.75 7.125 C-1.26820312 8.18074219 -1.26820312 8.18074219 -1.796875 9.2578125 C-3 11 -3 11 -6 12 C-6.80212628 13.87387216 -6.80212628 13.87387216 -7.1875 16.0625 C-7.34605469 16.79597656 -7.50460938 17.52945313 -7.66796875 18.28515625 C-7.77753906 18.85105469 -7.88710938 19.41695312 -8 20 C-8.99 19.01 -9.98 18.02 -11 17 C-9.52869627 12.6426774 -7.16919385 9.28065866 -4.375 5.6875 C-3.95476563 5.13771484 -3.53453125 4.58792969 -3.1015625 4.02148438 C-2.07279961 2.67707832 -1.0370991 1.33798587 0 0 Z " fill="#CE3E43" transform="translate(46,179)"/>
<path d="M0 0 C0.66 0 1.32 0 2 0 C1.34 1.98 0.68 3.96 0 6 C0.66 6.66 1.32 7.32 2 8 C2 8.66 2 9.32 2 10 C-0.31 10 -2.62 10 -5 10 C-4.67 7.69 -4.34 5.38 -4 3 C-2.68 2.67 -1.36 2.34 0 2 C0 1.34 0 0.68 0 0 Z " fill="#D50C16" transform="translate(43,188)"/>
<path d="M0 0 C0 3 0 3 -1 5 C0.32 4.67 1.64 4.34 3 4 C3 7.58912412 2.33563446 8.10857029 0 10.6875 C-0.556875 11.31011719 -1.11375 11.93273437 -1.6875 12.57421875 C-2.120625 13.04472656 -2.55375 13.51523438 -3 14 C-3.33 12.68 -3.66 11.36 -4 10 C-3.34 10 -2.68 10 -2 10 C-2 9.01 -2 8.02 -2 7 C-2.66 7 -3.32 7 -4 7 C-2.92598892 4.08482708 -2.22189824 2.22189824 0 0 Z " fill="#CD494E" transform="translate(138,137)"/>
<path d="M0 0 C1 2 1 2 0.0625 5.125 C-0.288125 6.07375 -0.63875 7.0225 -1 8 C-1.66 8 -2.32 8 -3 8 C-3 8.66 -3 9.32 -3 10 C-3.66 10 -4.32 10 -5 10 C-5 10.66 -5 11.32 -5 12 C-6.32 12.33 -7.64 12.66 -9 13 C-7.48268615 8.44805844 -5.06964403 4.65996019 -2 1 C-1.34 0.67 -0.68 0.34 0 0 Z " fill="#DD3237" transform="translate(83,126)"/>
<path d="M0 0 C0.66 0.33 1.32 0.66 2 1 C-2.95 5.62 -7.9 10.24 -13 15 C-13 12.66666667 -13 10.33333333 -13 8 C-11.68 8 -10.36 8 -9 8 C-9 7.34 -9 6.68 -9 6 C-8.01 6 -7.02 6 -6 6 C-6 5.34 -6 4.68 -6 4 C-4.36368108 2.95107762 -2.69514137 1.95093297 -1 1 C-0.67 0.67 -0.34 0.34 0 0 Z " fill="#F47273" transform="translate(227,50)"/>
<path d="M0 0 C2.4178943 1.9701361 2.98502564 2.95507691 4 6 C4.03954234 8.33299825 4.04401732 10.66708189 4 13 C3.67 13 3.34 13 3 13 C2.87625 12.030625 2.7525 11.06125 2.625 10.0625 C2.41875 9.051875 2.2125 8.04125 2 7 C1.34 6.67 0.68 6.34 0 6 C0 5.34 0 4.68 0 4 C-0.99 4.33 -1.98 4.66 -3 5 C-3.33 4.01 -3.66 3.02 -4 2 C-6.00016466 0.79117904 -6.00016466 0.79117904 -8 0 C-4.95904675 -0.97744926 -3.00367313 -1.16271218 0 0 Z " fill="#F66B6C" transform="translate(185,36)"/>
<path d="M0 0 C0.66 0.33 1.32 0.66 2 1 C2.64165788 6.26159459 1.20577001 8.68592849 -1.90625 12.6796875 C-2.2671875 13.11539063 -2.628125 13.55109375 -3 14 C-4.30048841 11.39902318 -4.56471422 8.86044938 -5 6 C-4.01 5.67 -3.02 5.34 -2 5 C-0.78130071 2.49552484 -0.78130071 2.49552484 0 0 Z " fill="#EB5254" transform="translate(130,126)"/>
<path d="M0 0 C0.66 0.33 1.32 0.66 2 1 C1.67 1.99 1.34 2.98 1 4 C-0.32 4 -1.64 4 -3 4 C-3 5.32 -3 6.64 -3 8 C-3.66 8 -4.32 8 -5 8 C-5 8.66 -5 9.32 -5 10 C-5.66 10 -6.32 10 -7 10 C-6.75 6.625 -6.75 6.625 -6 3 C-4.0625 1.625 -4.0625 1.625 -2 1 C-1.34 0.67 -0.68 0.34 0 0 Z " fill="#D5101D" transform="translate(152,124)"/>
<path d="M0 0 C1.32 0.33 2.64 0.66 4 1 C4 1.66 4 2.32 4 3 C3.34 3 2.68 3 2 3 C2 4.65 2 6.3 2 8 C0.68 8.33 -0.64 8.66 -2 9 C-3.125 4.25 -3.125 4.25 -2 2 C-1.34 2 -0.68 2 0 2 C0 1.34 0 0.68 0 0 Z " fill="#FB2D2C" transform="translate(144,103)"/>
<path d="M0 0 C0 3 0 3 -2.40625 5.69921875 C-3.4299968 6.70302243 -4.4616054 7.69885649 -5.5 8.6875 C-6.02464844 9.19861328 -6.54929688 9.70972656 -7.08984375 10.23632812 C-8.38660904 11.49772708 -9.69246117 12.74977212 -11 14 C-11.33 12.68 -11.66 11.36 -12 10 C-11.01 10 -10.02 10 -9 10 C-9 8.68 -9 7.36 -9 6 C-8.01 6 -7.02 6 -6 6 C-6 5.34 -6 4.68 -6 4 C-4.36368108 2.95107762 -2.69514137 1.95093297 -1 1 C-0.67 0.67 -0.34 0.34 0 0 Z " fill="#E15457" transform="translate(185,92)"/>
<path d="M0 0 C0.99 0.33 1.98 0.66 3 1 C-0.27530896 5.63720719 -3.30435607 9.68542782 -8 13 C-8.33 12.01 -8.66 11.02 -9 10 C-8.01 9.67 -7.02 9.34 -6 9 C-6 8.34 -6 7.68 -6 7 C-5.34 7 -4.68 7 -4 7 C-4 6.34 -4 5.68 -4 5 C-3.01 5 -2.02 5 -1 5 C-0.67 3.35 -0.34 1.7 0 0 Z " fill="#D95657" transform="translate(170,105)"/>
<path d="M0 0 C2.64 0 5.28 0 8 0 C6.25 4.875 6.25 4.875 4 6 C3.34 5.67 2.68 5.34 2 5 C2.33 5.99 2.66 6.98 3 8 C2.01 8 1.02 8 0 8 C0 5.36 0 2.72 0 0 Z " fill="#F93A39" transform="translate(165,70)"/>
<path d="M0 0 C1.12894876 0.93274109 2.25300876 1.87140122 3.375 2.8125 C4.00148437 3.33457031 4.62796875 3.85664063 5.2734375 4.39453125 C7 6 7 6 9 9 C8.34 9 7.68 9 7 9 C6.67 9.99 6.34 10.98 6 12 C5.34 12 4.68 12 4 12 C3.67 11.01 3.34 10.02 3 9 C3.99 9 4.98 9 6 9 C6 8.34 6 7.68 6 7 C4.35 6.67 2.7 6.34 1 6 C0.67 4.02 0.34 2.04 0 0 Z " fill="#CF3A3F" transform="translate(213,199)"/>
<path d="M0 0 C2 2 2 2 2.08203125 4.3125 C1.99308594 5.199375 1.90414062 6.08625 1.8125 7 C1.73644531 7.886875 1.66039063 8.77375 1.58203125 9.6875 C1 12 1 12 -2 14 C-2.33 14.845625 -2.66 15.69125 -3 16.5625 C-3.33 17.366875 -3.66 18.17125 -4 19 C-4.99 19.33 -5.98 19.66 -7 20 C-5.94362343 17.00693304 -4.85646274 14.80861699 -2.9375 12.25 C-0.49662154 8.15562322 -0.2083431 4.68771979 0 0 Z " fill="#F06A6B" transform="translate(106,82)"/>
<path d="M0 0 C1.04449911 3.13349732 0.93423645 3.98968256 0 7 C-0.99 7 -1.98 7 -3 7 C-3.12375 7.969375 -3.2475 8.93875 -3.375 9.9375 C-3.58125 10.948125 -3.7875 11.95875 -4 13 C-4.99 13.495 -4.99 13.495 -6 14 C-6.71484375 12.328125 -6.71484375 12.328125 -7 10 C-5.56640625 7.421875 -5.56640625 7.421875 -3.5625 4.75 C-2.90378906 3.85796875 -2.24507812 2.9659375 -1.56640625 2.046875 C-1.04949219 1.37140625 -0.53257813 0.6959375 0 0 Z " fill="#D23F43" transform="translate(54,167)"/>
<path d="M0 0 C0.66 0 1.32 0 2 0 C1.125 4.75 1.125 4.75 0 7 C-0.21377721 12.60703213 -0.21377721 12.60703213 1 18 C0.01 17.67 -0.98 17.34 -2 17 C-2.33 12.71 -2.66 8.42 -3 4 C-2.01 4 -1.02 4 0 4 C0 2.68 0 1.36 0 0 Z " fill="#CF2326" transform="translate(112,154)"/>
<path d="M0 0 C2 3.75 2 3.75 2 6 C1.34 6 0.68 6 0 6 C0 7.32 0 8.64 0 10 C-1.98 10 -3.96 10 -6 10 C-4.69063102 7.07909997 -3.24380538 5.24380538 -1 3 C-0.67 2.01 -0.34 1.02 0 0 Z " fill="#F81D2B" transform="translate(172,94)"/>
<path d="M0 0 C1.06544301 3.19632902 1.19353531 3.97025652 0 7 C-2.0625 9.25 -2.0625 9.25 -4 11 C-4.66 10.67 -5.32 10.34 -6 10 C-4.6302836 6.00499382 -2.74277578 3.19990508 0 0 Z " fill="#EB5255" transform="translate(178,81)"/>
<path d="M0 0 C0 3.38023517 -0.87455622 5.83468937 -2 9 C-1.360625 9.12375 -0.72125 9.2475 -0.0625 9.375 C0.618125 9.58125 1.29875 9.7875 2 10 C2.33 10.66 2.66 11.32 3 12 C0.0625 11.625 0.0625 11.625 -3 11 C-4.35439668 8.29120665 -4.06501451 5.99066732 -4 3 C-3.34 3 -2.68 3 -2 3 C-2 2.34 -2 1.68 -2 1 C-1.34 0.67 -0.68 0.34 0 0 Z " fill="#C20B11" transform="translate(34,205)"/>
<path d="M0 0 C1.65 0.33 3.3 0.66 5 1 C5 1.66 5 2.32 5 3 C4.01 3.495 4.01 3.495 3 4 C3 4.66 3 5.32 3 6 C3.680625 5.2575 3.680625 5.2575 4.375 4.5 C6 3 6 3 8 3 C8 4.32 8 5.64 8 7 C5.69 7 3.38 7 1 7 C0.33333333 5.66666667 -0.33333333 4.33333333 -1 3 C-0.67 2.01 -0.34 1.02 0 0 Z " fill="#C70F16" transform="translate(214,205)"/>
<path d="M0 0 C5.78461538 4.30769231 5.78461538 4.30769231 6.875 7.8125 C6.936875 8.8953125 6.936875 8.8953125 7 10 C5.68 10 4.36 10 3 10 C2.87625 9.195625 2.7525 8.39125 2.625 7.5625 C2.315625 6.2940625 2.315625 6.2940625 2 5 C1.34 4.67 0.68 4.34 0 4 C0 2.68 0 1.36 0 0 Z " fill="#C94B4C" transform="translate(222,208)"/>
<path d="M0 0 C1.65 0 3.3 0 5 0 C-1.15034169 7.48291572 -1.15034169 7.48291572 -5 10 C-5 8.68 -5 7.36 -5 6 C-4.34 6 -3.68 6 -3 6 C-3 5.34 -3 4.68 -3 4 C-2.01 4 -1.02 4 0 4 C0 2.68 0 1.36 0 0 Z " fill="#E15F5D" transform="translate(195,78)"/>
<path d="M0 0 C1.98 0 3.96 0 6 0 C5.50168276 3.68754757 4.89932357 5.60490662 2 8 C0.23537317 4.91190305 0 3.76687864 0 0 Z " fill="#FC3037" transform="translate(157,82)"/>
<path d="M0 0 C0.33 0.66 0.66 1.32 1 2 C1.66 2 2.32 2 3 2 C2.42655063 4.86724686 2.1385485 5.8614515 0 8 C-0.99 8 -1.98 8 -3 8 C-2.45276317 4.62537285 -1.9451 2.91765 0 0 Z " fill="#BF5556" transform="translate(124,156)"/>
<path d="M0 0 C1.09570312 0.00902344 2.19140625 0.01804688 3.3203125 0.02734375 C4.16335937 0.03894531 5.00640625 0.05054688 5.875 0.0625 C5.545 0.7225 5.215 1.3825 4.875 2.0625 C2.9878125 1.9696875 2.9878125 1.9696875 1.0625 1.875 C-2.25843838 1.8024651 -2.25843838 1.8024651 -5 3.5625 C-5.37125 4.0575 -5.7425 4.5525 -6.125 5.0625 C-6.785 5.0625 -7.445 5.0625 -8.125 5.0625 C-8.125 3.7425 -8.125 2.4225 -8.125 1.0625 C-5.36047967 -0.31976016 -3.0788637 -0.03275387 0 0 Z " fill="#FB4445" transform="translate(37.125,35.9375)"/>
<path d="M0 0 C0.75 1.75 0.75 1.75 1 4 C-1.31787009 7.00464642 -3.2273236 8.46104623 -7 9 C-5.44499019 5.18315774 -2.96404505 2.80804268 0 0 Z " fill="#E2444E" transform="translate(155,115)"/>
<path d="M0 0 C1.65 0 3.3 0 5 0 C3.88096454 1.81618856 2.75458716 3.62785526 1.625 5.4375 C0.99851563 6.44683594 0.37203125 7.45617187 -0.2734375 8.49609375 C-2 11 -2 11 -4 12 C-3.67 10.02 -3.34 8.04 -3 6 C-2.01 6 -1.02 6 0 6 C0 4.02 0 2.04 0 0 Z " fill="#FA7D7E" transform="translate(176,62)"/>
<path d="M0 0 C1.36682561 2.73365122 0.84683011 4.10666379 0 7 C-2.13594373 9.88352404 -4.66670261 10.82884146 -8 12 C-6.59023295 8.96147295 -4.91129772 6.4060405 -2.875 3.75 C-2.06675781 2.69039062 -2.06675781 2.69039062 -1.2421875 1.609375 C-0.83226562 1.07828125 -0.42234375 0.5471875 0 0 Z " fill="#F26163" transform="translate(195,58)"/>
<path d="M0 0 C0.66 0 1.32 0 2 0 C2 2.66666667 2 5.33333333 2 8 C-0.5 10.1875 -0.5 10.1875 -3 12 C-3.33 10.68 -3.66 9.36 -4 8 C-3.01 7.67 -2.02 7.34 -1 7 C-0.67 4.69 -0.34 2.38 0 0 Z " fill="#FC696C" transform="translate(232,38)"/>
<path d="M0 0 C0.66 0.33 1.32 0.66 2 1 C2 2.32 2 3.64 2 5 C1.34 5 0.68 5 0 5 C-0.061875 5.598125 -0.12375 6.19625 -0.1875 6.8125 C-1.3236757 9.87143458 -3.17330142 10.55041099 -6 12 C-5.34 9.69 -4.68 7.38 -4 5 C-3.34 5.33 -2.68 5.66 -2 6 C-1.34 4.02 -0.68 2.04 0 0 Z " fill="#D1101C" transform="translate(51,174)"/>
<path d="M0 0 C0 3.96018245 -1.18721244 6.5039097 -3 10 C-5.1875 10.9375 -5.1875 10.9375 -7 11 C-5.22054913 6.95579349 -2.60470327 3.53921513 0 0 Z " fill="#E65E63" transform="translate(171,91)"/>
<path d="M0 0 C2.31 0 4.62 0 7 0 C7 3.3 7 6.6 7 10 C5 6 5 6 5 4 C4.01 3.67 3.02 3.34 2 3 C2 2.34 2 1.68 2 1 C1.34 0.67 0.68 0.34 0 0 Z " fill="#F13E43" transform="translate(102,78)"/>
<path d="M0 0 C1 3 1 3 -0.21484375 5.48046875 C-0.78332031 6.37378906 -1.35179687 7.26710938 -1.9375 8.1875 C-2.50339844 9.08855469 -3.06929687 9.98960938 -3.65234375 10.91796875 C-4.09707031 11.60503906 -4.54179687 12.29210938 -5 13 C-6.19872272 9.40383184 -5.72500287 8.71078361 -4.1875 5.375 C-3.83042969 4.57835937 -3.47335938 3.78171875 -3.10546875 2.9609375 C-2 1 -2 1 0 0 Z " fill="#F98987" transform="translate(187,49)"/>
<path d="M0 0 C0 3.61137513 -0.92530082 4.74732191 -2.9375 7.6875 C-3.48277344 8.49574219 -4.02804688 9.30398437 -4.58984375 10.13671875 C-5.05519531 10.75160156 -5.52054687 11.36648437 -6 12 C-6.33 12 -6.66 12 -7 12 C-7 10.02 -7 8.04 -7 6 C-6.01 5.67 -5.02 5.34 -4 5 C-3.67 4.01 -3.34 3.02 -3 2 C-2.01 1.34 -1.02 0.68 0 0 Z " fill="#EC6F73" transform="translate(121,146)"/>
<path d="M0 0 C0.33 0.66 0.66 1.32 1 2 C0.22265625 3.9453125 0.22265625 3.9453125 -0.9375 6.125 C-1.31777344 6.84945312 -1.69804688 7.57390625 -2.08984375 8.3203125 C-2.39019531 8.87460938 -2.69054687 9.42890625 -3 10 C-3.99 9.67 -4.98 9.34 -6 9 C-4.02 6.03 -2.04 3.06 0 0 Z " fill="#DC4E54" transform="translate(69,145)"/>
<path d="M0 0 C0 3.58912412 -0.66436554 4.10857029 -3 6.6875 C-3.556875 7.31011719 -4.11375 7.93273437 -4.6875 8.57421875 C-5.120625 9.04472656 -5.55375 9.51523438 -6 10 C-6.33 9.34 -6.66 8.68 -7 8 C-6.67 7.01 -6.34 6.02 -6 5 C-5.34 5 -4.68 5 -4 5 C-4 3.68 -4 2.36 -4 1 C-2.68 0.67 -1.36 0.34 0 0 Z " fill="#DB5656" transform="translate(153,127)"/>
<path d="M0 0 C0 3 0 3 -1.53125 4.60546875 C-2.1809375 5.12753906 -2.830625 5.64960937 -3.5 6.1875 C-4.1496875 6.71730469 -4.799375 7.24710937 -5.46875 7.79296875 C-5.9740625 8.19128906 -6.479375 8.58960937 -7 9 C-7.33 8.01 -7.66 7.02 -8 6 C-7.01 6 -6.02 6 -5 6 C-5 4.68 -5 3.36 -5 2 C-3.35 1.34 -1.7 0.68 0 0 Z " fill="#DD5957" transform="translate(161,118)"/>
<path d="M0 0 C0 3.39593478 -0.52165948 4.06619881 -2.5 6.6875 C-2.9640625 7.31011719 -3.428125 7.93273437 -3.90625 8.57421875 C-4.2671875 9.04472656 -4.628125 9.51523438 -5 10 C-6.0859375 6.265625 -6.0859375 6.265625 -5.3125 3.875 C-3.7809268 1.68703828 -2.45234885 0.98093954 0 0 Z " fill="#F17475" transform="translate(157,94)"/>
<path d="M0 0 C2.46800047 1.15173355 4.04783565 2.04783565 6 4 C7.98821313 4.39764263 9.98944339 4.73775349 12 5 C11.01 6.32 10.02 7.64 9 9 C7.49704815 7.69088122 5.99770689 6.37761608 4.5 5.0625 C3.6646875 4.33160156 2.829375 3.60070313 1.96875 2.84765625 C1.3190625 2.23792969 0.669375 1.62820312 0 1 C0 0.67 0 0.34 0 0 Z " fill="#FB6E74" transform="translate(29,41)"/>
<path d="M0 0 C2.475 0.495 2.475 0.495 5 1 C4.34 2.32 3.68 3.64 3 5 C3.66 5.33 4.32 5.66 5 6 C3.35 6 1.7 6 0 6 C0 4.02 0 2.04 0 0 Z " fill="#F71F1B" transform="translate(125,126)"/>
<path d="M0 0 C1 4 1 4 0.0625 6.25 C-0.4634375 7.11625 -0.4634375 7.11625 -1 8 C-2.32 7.67 -3.64 7.34 -5 7 C-3.35 4.69 -1.7 2.38 0 0 Z " fill="#E85558" transform="translate(98,102)"/>
<path d="M0 0 C0.33 0.66 0.66 1.32 1 2 C0.0625 4.125 0.0625 4.125 -1 6 C-1.66 6 -2.32 6 -3 6 C-3 6.66 -3 7.32 -3 8 C-3.99 8 -4.98 8 -6 8 C-4.55746343 4.63408134 -2.66735273 2.48952921 0 0 Z " fill="#F56367" transform="translate(202,50)"/>
<path d="M0 0 C0.66 0.33 1.32 0.66 2 1 C-0.31 3.31 -2.62 5.62 -5 8 C-5.33 6.68 -5.66 5.36 -6 4 C-5.34 4 -4.68 4 -4 4 C-4 3.34 -4 2.68 -4 2 C-2.125 0.9375 -2.125 0.9375 0 0 Z " fill="#F17474" transform="translate(206,70)"/>
<path d="M0 0 C1 3 1 3 1 5 C-0.98 5.66 -2.96 6.32 -5 7 C-3.75023244 3.34683329 -3.32901247 2.21934164 0 0 Z " fill="#D53C42" transform="translate(60,160)"/>
<path d="M0 0 C0.33 0.99 0.66 1.98 1 3 C-3.95 4.485 -3.95 4.485 -9 6 C-8 3 -8 3 -6.15234375 2.05078125 C-5.42144531 1.80714844 -4.69054687 1.56351562 -3.9375 1.3125 C-3.20402344 1.06113281 -2.47054687 0.80976562 -1.71484375 0.55078125 C-0.86599609 0.27814453 -0.86599609 0.27814453 0 0 Z " fill="#DC2E38" transform="translate(155,121)"/>
<path d="M0 0 C1.27351308 2.54702616 0.80191925 3.4282945 0.0625 6.125 C-0.13214844 6.84945312 -0.32679687 7.57390625 -0.52734375 8.3203125 C-0.68332031 8.87460938 -0.83929688 9.42890625 -1 10 C-1.99 9.01 -2.98 8.02 -4 7 C-2.92598892 4.08482708 -2.22189824 2.22189824 0 0 Z " fill="#D54448" transform="translate(39,189)"/>
<path d="M0 0 C0.66 0.33 1.32 0.66 2 1 C1.625 2.9375 1.625 2.9375 1 5 C0.01 5.495 0.01 5.495 -1 6 C-1.66 5.67 -2.32 5.34 -3 5 C-3 4.01 -3 3.02 -3 2 C-2.01 1.34 -1.02 0.68 0 0 Z " fill="#B53231" transform="translate(128,153)"/>
<path d="M0 0 C1.32 0.33 2.64 0.66 4 1 C3.34 2.32 2.68 3.64 2 5 C0.68 5 -0.64 5 -2 5 C-1.34 3.35 -0.68 1.7 0 0 Z " fill="#B61014" transform="translate(139,137)"/>
<path d="M0 0 C0.66 0.33 1.32 0.66 2 1 C2 2.98 2 4.96 2 7 C1.01 7.495 1.01 7.495 0 8 C0 7.01 0 6.02 0 5 C-0.66 5 -1.32 5 -2 5 C-1.34 3.35 -0.68 1.7 0 0 Z " fill="#F53641" transform="translate(130,126)"/>
<path d="M0 0 C0.33 0 0.66 0 1 0 C1 1.65 1 3.3 1 5 C-2.465 6.485 -2.465 6.485 -6 8 C-5.00102287 5.00306862 -4.34869747 3.97290587 -2 2 C-1.34 2 -0.68 2 0 2 C0 1.34 0 0.68 0 0 Z " fill="#E41B1E" transform="translate(158,115)"/>
<path d="M0 0 C0.99 0 1.98 0 3 0 C1.75023244 3.65316671 1.32901247 4.78065836 -2 7 C-2 5.35 -2 3.7 -2 2 C-1.34 2 -0.68 2 0 2 C0 1.34 0 0.68 0 0 Z " fill="#F07276" transform="translate(148,104)"/>
<path d="M0 0 C0.33 0 0.66 0 1 0 C1.25 2.3125 1.25 2.3125 1 5 C-1 6.8125 -1 6.8125 -3 8 C-3 6.35 -3 4.7 -3 3 C-2.01 2.67 -1.02 2.34 0 2 C0 1.34 0 0.68 0 0 Z " fill="#E8424A" transform="translate(189,84)"/>
<path d="M0 0 C1.32 0.33 2.64 0.66 4 1 C3.67 2.65 3.34 4.3 3 6 C2.01 6 1.02 6 0 6 C0 4.02 0 2.04 0 0 Z " fill="#FC3A3A" transform="translate(173,62)"/>
<path d="M0 0 C1.875 0.1875 1.875 0.1875 4 1 C5.25 3.5625 5.25 3.5625 6 6 C5.34 6 4.68 6 4 6 C4 5.34 4 4.68 4 4 C3.01 4 2.02 4 1 4 C0.67 2.68 0.34 1.36 0 0 Z " fill="#C12C2E" transform="translate(208,196)"/>
<path d="M0 0 C0.99 0.33 1.98 0.66 3 1 C2.67 2.65 2.34 4.3 2 6 C1.34 6 0.68 6 0 6 C0 5.34 0 4.68 0 4 C-0.66 3.67 -1.32 3.34 -2 3 C-1.34 2.01 -0.68 1.02 0 0 Z " fill="#D20C12" transform="translate(202,191)"/>
<path d="M0 0 C1 2 1 2 0.3125 5.0625 C-1 8 -1 8 -3.125 8.875 C-3.74375 8.91625 -4.3625 8.9575 -5 9 C-3.7508258 5.54074837 -2.32472205 2.85306797 0 0 Z " fill="#E75D60" transform="translate(79,130)"/>
<path d="M0 0 C0.66 1.32 1.32 2.64 2 4 C-0.31 5.32 -2.62 6.64 -5 8 C-3.62845496 5.04590299 -2.01136276 2.55991624 0 0 Z " fill="#F26167" transform="translate(184,73)"/>
<path d="M0 0 C0.66 0 1.32 0 2 0 C2 1.98 2 3.96 2 6 C1.01 6 0.02 6 -1 6 C-1.042721 4.33388095 -1.04063832 2.66617115 -1 1 C-0.67 0.67 -0.34 0.34 0 0 Z " fill="#E00814" transform="translate(206,196)"/>
<path d="M0 0 C3.24208567 0.35049575 4.61527704 0.56221181 6.8125 3.0625 C7.204375 3.701875 7.59625 4.34125 8 5 C5.03 4.505 5.03 4.505 2 4 C2 3.01 2 2.02 2 1 C1.34 0.67 0.68 0.34 0 0 Z " fill="#DA5E61" transform="translate(187,176)"/>
<path d="M0 0 C1.65 0 3.3 0 5 0 C5.33 0.99 5.66 1.98 6 3 C4.35 3.33 2.7 3.66 1 4 C0.67 2.68 0.34 1.36 0 0 Z " fill="#DD101F" transform="translate(119,178)"/>
<path d="M0 0 C0.66 1.32 1.32 2.64 2 4 C1.360625 4.28875 0.72125 4.5775 0.0625 4.875 C-2.15206079 5.82823451 -2.15206079 5.82823451 -3 8 C-3.66 7.67 -4.32 7.34 -5 7 C-3.35 4.69 -1.7 2.38 0 0 Z " fill="#DF6164" transform="translate(163,102)"/>
<path d="M0 0 C0 3 0 3 -1.3125 4.38671875 C-2.875 5.59114583 -4.4375 6.79557292 -6 8 C-6 6.68 -6 5.36 -6 4 C-3.5625 2.3125 -3.5625 2.3125 -1 1 C-0.67 0.67 -0.34 0.34 0 0 Z " fill="#F37D84" transform="translate(185,92)"/>
<path d="M0 0 C0 3 0 3 -2.5 5.6875 C-3.325 6.450625 -4.15 7.21375 -5 8 C-4.67 5.69 -4.34 3.38 -4 1 C-2.68 0.67 -1.36 0.34 0 0 Z " fill="#FD807D" transform="translate(171,74)"/>
</svg>
